<svg id="visual" viewBox="0 0 900 600" width="900" height="600" xmlns="http://www.w3.org/2000/svg" xmlns:xlink="http://www.w3.org/1999/xlink" version="1.1"><path d="M0 317L300 317L300 288L600 288L600 318L900 318L900 280L900 601L900 601L600 601L600 601L300 601L300 601L0 601Z" fill="#ff8f94"></path><path d="M0 393L300 393L300 360L600 360L600 394L900 394L900 387L900 601L900 601L600 601L600 601L300 601L300 601L0 601Z" fill="#f492c4"></path><path d="M0 432L300 432L300 437L600 437L600 417L900 417L900 445L900 601L900 601L600 601L600 601L300 601L300 601L0 601Z" fill="#cca2ec"></path><path d="M0 538L300 538L300 516L600 516L600 521L900 521L900 528L900 601L900 601L600 601L600 601L300 601L300 601L0 601Z" fill="#8fb4ff"></path></svg>